<?xml version="1.0" encoding="utf-8"?>
<!-- Generator: Adobe Adobe Illustrator 24.2.0, SVG Export Plug-In . SVG Version: 6.00 Build 0)  -->
<svg version="1.1" id="Layer_1" xmlns="http://www.w3.org/2000/svg" xmlns:xlink="http://www.w3.org/1999/xlink" x="0px" y="0px"
	 width="595.3px" height="841.9px" viewBox="0 0 595.3 841.9" style="enable-background:new 0 0 595.3 841.9;" xml:space="preserve"
	>
<style type="text/css">
	.st0{clip-path:url(#SVGID_2_);}
	.st1{clip-path:url(#SVGID_4_);fill:#FFFFFF;}
	
		.st2{clip-path:url(#SVGID_2_);fill:none;stroke:#000000;stroke-width:18.0781;stroke-linecap:round;stroke-linejoin:round;stroke-miterlimit:10;}
	
		.st3{clip-path:url(#SVGID_2_);fill:none;stroke:#000000;stroke-width:11.7508;stroke-linecap:round;stroke-linejoin:round;stroke-miterlimit:10;}
	
		.st4{clip-path:url(#SVGID_2_);fill:none;stroke:#000000;stroke-width:7.6832;stroke-linecap:round;stroke-linejoin:round;stroke-miterlimit:10;}
	
		.st5{clip-path:url(#SVGID_2_);fill:none;stroke:#000000;stroke-width:11.8636;stroke-linecap:round;stroke-linejoin:round;stroke-miterlimit:10;}
</style>
<g>
	<g>
		<defs>
			<rect id="SVGID_1_" width="595.3" height="841.9"/>
		</defs>
		<clipPath id="SVGID_2_">
			<use xlink:href="#SVGID_1_"  style="overflow:visible;"/>
		</clipPath>
		<g class="st0">
			<defs>
				<rect id="SVGID_3_" width="595.3" height="841.9"/>
			</defs>
			<clipPath id="SVGID_4_">
				<use xlink:href="#SVGID_3_"  style="overflow:visible;"/>
			</clipPath>
			<rect class="st1" width="595.3" height="841.9"/>
		</g>
		
			<ellipse transform="matrix(0.9886 -0.1508 0.1508 0.9886 -33.7148 46.7319)" class="st2" cx="291.3" cy="245.7" rx="52.8" ry="52.8"/>
		<path class="st2" d="M255.8,294c0,0.3,0,0.6,0,0.9c0,0.3-0.1,0.7-0.3,1.1c-0.2,0.4-0.5,0.9-1,1.5c-0.5,0.6-1.2,1-2,1.4
			c-0.8,0.4-1.8,0.5-2.8,0.5c-1,0-2.1-0.2-3.1-0.6c-1.1-0.4-2.2-1-3.3-1.8c-1.1-0.8-2.3-1.6-3.4-2.4c-1.2-0.8-2.3-1.6-3.5-2.4
			c-1.1-0.8-2.3-1.7-3.5-2.6c-1.2-1-2.5-1.9-3.9-2.8c-1.4-0.9-2.8-1.8-4.3-2.7c-1.5-0.9-2.9-1.9-4.3-2.9s-2.7-1.9-4.1-2.8
			c-1.3-0.9-2.6-1.8-3.9-2.8c-1.3-1-2.6-2-4-3c-1.4-1-2.7-2-4.2-2.8c-1.4-0.8-2.9-1.5-4.4-2c-1.5-0.5-2.9-0.8-4.3-0.8
			c-1.4,0-2.6,0.3-3.6,0.9c-1,0.6-1.9,1.3-2.7,2.3c-0.8,1-1.4,2.1-1.9,3.3c-0.5,1.3-0.8,2.6-0.9,3.9c-0.1,1.4-0.1,2.7,0,4
			c0.2,1.3,0.4,2.7,0.8,4.2s0.9,2.9,1.6,4.4c0.6,1.5,1.4,2.9,2.2,4.4c0.8,1.4,1.8,2.8,2.8,4.2c1,1.4,2,2.6,3.1,3.7s2.3,2.1,3.6,3
			c1.3,0.9,2.7,1.8,4.1,2.7c1.4,0.9,2.9,1.7,4.3,2.5c1.4,0.8,2.8,1.5,4.1,2.2c1.3,0.7,2.6,1.3,3.8,1.8c1.2,0.5,2.3,1.1,3.5,1.5
			c1.1,0.5,2.2,1,3.3,1.4c1.1,0.5,2.1,0.9,3.1,1.5c1,0.5,2,1.1,3,1.7c1,0.6,1.9,1.2,2.8,1.8c0.9,0.6,1.8,1.1,2.6,1.7
			c0.9,0.5,1.6,1.1,2.3,1.7c0.7,0.6,1.2,1,1.6,1.4c0.4,0.4,0.6,0.5,0.6,0.5c0.1,0,0.1,0,0-0.1"/>
		<path class="st2" d="M324.3,296.1c-0.2-0.2-0.4-0.2-0.5,0c-0.1,0.1-0.1,0.4,0.1,0.9c0.2,0.5,0.8,1.2,1.7,2
			c0.9,0.8,2.2,1.7,3.7,2.7c1.5,1,3,2.1,4.5,3.1c1.4,1.1,2.8,2.3,4.1,3.7c1.3,1.4,2.6,2.8,3.8,4.4c1.2,1.6,2.4,3.1,3.4,4.7
			c1,1.6,2,3.2,2.9,5c0.9,1.8,1.7,3.7,2.3,5.7c0.7,2,1.2,4,1.6,6c0.4,2,0.8,4,1,6c0.2,2,0.3,4,0.3,5.9c0,1.9-0.2,3.9-0.5,5.8
			c-0.3,1.9-0.7,3.8-1.2,5.7c-0.5,1.9-1.1,3.7-1.7,5.5c-0.6,1.8-1.2,3.5-1.8,5.1c-0.6,1.6-1.2,3.2-1.8,4.7c-0.6,1.5-1.2,3-1.8,4.4
			c-0.6,1.4-1.2,2.8-1.8,4.1c-0.6,1.3-1.2,2.6-1.8,3.9c-0.6,1.3-1.3,2.5-2,3.7c-0.7,1.2-1.4,2.3-2.1,3.3c-0.7,1.1-1.5,2-2.3,2.9
			c-0.8,0.9-1.7,1.6-2.6,2.2c-0.9,0.5-1.8,1-2.8,1.3c-1,0.3-1.9,0.5-2.8,0.7c-0.9,0.1-1.8,0.1-2.7,0c-0.9-0.1-1.8-0.4-2.7-0.8
			c-0.9-0.4-1.7-0.8-2.5-1.4c-0.8-0.5-1.4-1.2-1.9-1.9c-0.5-0.7-0.8-1.6-1-2.5c-0.2-0.9-0.4-1.9-0.6-3c-0.1-1-0.2-2.1-0.3-3.1
			c-0.1-1-0.1-2.1-0.1-3.1c0-1,0-2.1,0.1-3.2c0.1-1.1,0.2-2.1,0.4-3.2s0.4-2,0.6-3c0.2-1,0.5-1.8,0.7-2.6c0.2-0.7,0.4-1.3,0.6-1.7
			c0.2-0.6,0.5-0.9,0.7-0.9"/>
		<path class="st2" d="M235.8,324.8c0,0.1,0.2,0.3,0.4,0.6s0.8,0.7,1.7,1.2c0.9,0.6,2,1.3,3.1,2.2s2.4,2,3.6,3.2
			c1.2,1.2,2.4,2.4,3.6,3.6c1.2,1.2,2.3,2.5,3.2,4s1.8,3,2.5,4.6c0.7,1.7,1.3,3.4,1.8,5.1c0.5,1.8,0.9,3.6,1.3,5.5
			c0.3,1.9,0.6,3.7,0.8,5.6c0.2,1.9,0.4,3.8,0.4,5.7c0.1,1.9,0.1,3.7,0.1,5.6c0,1.8,0,3.6,0,5.4c0,1.8,0,3.6,0,5.4
			c0,1.8,0,3.6,0,5.3c0,1.7,0,3.5,0.1,5.2c0,1.7,0.1,3.4,0.1,5.1c0.1,1.7,0.1,3.3,0.2,4.9c0.1,1.6,0.2,3.2,0.3,4.7
			c0.2,1.5,0.4,3,0.6,4.5c0.2,1.4,0.5,2.8,0.7,4.1c0.3,1.3,0.5,2.5,0.6,3.8c0.2,1.2,0.2,2.4,0.2,3.6c0,1.1-0.1,2.3-0.4,3.4
			c-0.2,1.1-0.6,2.2-1,3.3c-0.4,1.1-0.8,2.2-1.1,3.4c-0.4,1.2-0.6,2.2-0.8,3.2c-0.2,1-0.3,2-0.4,2.9c-0.1,0.9-0.1,1.8-0.1,2.6
			c0,0.8,0.1,1.7,0.1,2.6c0.1,0.9,0.2,1.8,0.3,2.6c0.1,0.9,0.3,1.8,0.5,2.7c0.2,0.9,0.4,1.8,0.8,2.7c0.3,0.9,0.7,1.8,1.2,2.6
			c0.5,0.8,1,1.6,1.6,2.3c0.6,0.7,1.3,1.4,2,2.1c0.7,0.6,1.5,1.2,2.3,1.7c0.8,0.5,1.7,1,2.6,1.3c0.9,0.4,1.9,0.7,2.9,0.8
			c1,0.2,2.1,0.3,3.1,0.3c1.1,0.1,2.2,0.1,3.3,0.1c1.1,0,2.2-0.1,3.2-0.2c1-0.1,2-0.4,2.9-0.7c0.9-0.3,1.6-0.8,2.3-1.4
			c0.7-0.6,1.2-1.2,1.5-2c0.4-0.8,0.7-1.5,0.9-2.3c0.2-0.8,0.4-1.4,0.5-2c0.1-0.6,0.2-0.9,0.2-1.2c0-0.2,0-0.4,0-0.5
			c0-0.1-0.1-0.2-0.1-0.2c0,0-0.1,0-0.1,0c0,0,0,0,0,0c0,0,0,0,0,0s0,0,0,0c0,0,0,0,0,0.1c0,0.1,0,0.2,0.1,0.3
			c0,0.2,0.1,0.4,0.2,0.7s0.2,0.6,0.3,1.1c0.1,0.4,0.2,0.9,0.4,1.4c0.1,0.5,0.3,1,0.5,1.5c0.2,0.5,0.4,1,0.6,1.5
			c0.3,0.5,0.6,0.9,0.9,1.4c0.3,0.4,0.7,0.8,1.2,1.2c0.4,0.4,0.9,0.7,1.4,1c0.5,0.3,1.1,0.6,1.7,0.8c0.6,0.2,1.3,0.4,2.1,0.5
			c0.7,0.1,1.6,0.2,2.4,0.2c0.9,0,1.8,0,2.8-0.1c1-0.1,2.1-0.2,3.1-0.3c1.1-0.1,2.1-0.3,3.1-0.5c1-0.2,2-0.4,3-0.8
			c1-0.3,1.9-0.7,2.9-1.1c0.9-0.4,1.8-0.9,2.5-1.4c0.8-0.5,1.4-1.1,2-1.8c0.6-0.7,1-1.4,1.4-2.3c0.3-0.8,0.6-1.7,0.8-2.7
			c0.2-0.9,0.4-2,0.5-3.1c0.1-1.1,0.2-2.3,0.2-3.5c0.1-1.2,0.1-2.4,0.1-3.6c0-1.2,0-2.4-0.1-3.5c-0.1-1.2-0.2-2.4-0.3-3.6
			c-0.1-1.2-0.2-2.5-0.2-3.9c0-1.4,0.1-2.8,0.2-4.3c0.1-1.5,0.3-3,0.4-4.4c0.1-1.4,0.3-2.8,0.4-4c0.1-1.3,0.2-2.4,0.4-3.5
			c0.1-1,0.3-2.1,0.4-3c0.1-1,0.3-1.9,0.5-2.9c0.2-0.9,0.3-1.7,0.4-2.3c0.1-0.6,0.2-1.2,0.3-1.7c0.1-0.5,0.2-0.8,0.2-1.1
			c0.1-0.3,0.1-0.5,0.2-0.7c0.1-0.3,0.2-0.5,0.2-0.7"/>
		<line class="st3" x1="144.8" y1="236.4" x2="189.2" y2="277.4"/>
		<line class="st4" x1="125.7" y1="217.5" x2="131.6" y2="225.3"/>
		<line class="st4" x1="143.3" y1="221.2" x2="143.3" y2="211.8"/>
		<line class="st4" x1="120.1" y1="238.7" x2="129" y2="236.6"/>
		<path class="st5" d="M293.6,252.6c8.4,5.3,16.6,5,24.6-1"/>
		<line class="st5" x1="318.8" y1="233.2" x2="318.8" y2="233.2"/>
		<line class="st5" x1="292.9" y1="232.4" x2="292.9" y2="232.4"/>
	</g>
</g>
</svg>
