<?xml version="1.0" encoding="utf-8"?>
<!-- Generator: Adobe Adobe Illustrator 24.2.0, SVG Export Plug-In . SVG Version: 6.00 Build 0)  -->
<svg version="1.1" id="Layer_1" xmlns="http://www.w3.org/2000/svg" xmlns:xlink="http://www.w3.org/1999/xlink" x="0px" y="0px"
	 width="595.3px" height="841.9px" viewBox="0 0 595.3 841.9" style="enable-background:new 0 0 595.3 841.9;" xml:space="preserve"
	>
<style type="text/css">
	.st0{clip-path:url(#SVGID_2_);}
	.st1{clip-path:url(#SVGID_4_);fill:#FFFFFF;}
	
		.st2{clip-path:url(#SVGID_2_);fill:none;stroke:#000000;stroke-width:16.5785;stroke-linecap:round;stroke-linejoin:round;stroke-miterlimit:10;}
</style>
<g>
	<g>
		<defs>
			<rect id="SVGID_1_" width="595.3" height="841.9"/>
		</defs>
		<clipPath id="SVGID_2_">
			<use xlink:href="#SVGID_1_"  style="overflow:visible;"/>
		</clipPath>
		<g class="st0">
			<defs>
				<rect id="SVGID_3_" width="595.3" height="841.9"/>
			</defs>
			<clipPath id="SVGID_4_">
				<use xlink:href="#SVGID_3_"  style="overflow:visible;"/>
			</clipPath>
			<rect class="st1" width="595.3" height="841.9"/>
		</g>
		<path class="st2" d="M235.9,389.5c-5.1-1.3-10-3-14.7-5.3c-4.7-2.3-9.1-5-13.2-8.3c-4.1-3.2-7.9-6.8-11.2-10.8
			c-3.4-4-6.3-8.3-8.7-12.9c-2.5-4.6-4.4-9.4-5.8-14.5c-1.4-5-2.3-10.1-2.7-15.4s-0.2-10.4,0.5-15.6c0.7-5.2,2-10.2,3.8-15.1
			c1.8-4.9,4.1-9.6,6.8-14c2.8-4.4,6-8.5,9.6-12.3c3.6-3.8,7.6-7.1,11.9-10c4.3-2.9,8.9-5.4,13.8-7.3c4.8-2,9.8-3.4,15-4.3
			c5.1-0.9,10.3-1.3,15.6-1.1c5.2,0.2,10.4,0.9,15.4,2.2c5.1,1.3,10,3,14.7,5.3c4.7,2.3,9.1,5,13.2,8.3c4.1,3.2,7.9,6.8,11.2,10.8
			c3.4,4,6.3,8.3,8.7,12.9s4.4,9.4,5.8,14.5c1.4,5,2.3,10.1,2.7,15.4c0.4,5.2,0.2,10.4-0.5,15.6c-0.7,5.2-2,10.2-3.8,15.1
			c-1.8,4.9-4.1,9.6-6.8,14c-2.8,4.4-6,8.5-9.6,12.3 M307.6,368.9c-3.6,3.8-7.6,7.1-11.9,10c-4.3,2.9-8.9,5.4-13.8,7.3"/>
		<path class="st2" d="M314.7,265.2c2.6-4.6,5.7-8.8,9.3-12.7c3.6-3.9,7.6-7.3,12-10.2c4.4-2.9,9.1-5.3,14-7.2
			c5-1.9,10.1-3.1,15.3-3.8c5.2-0.7,10.5-0.7,15.8-0.1c5.3,0.6,10.4,1.7,15.4,3.5c5,1.8,9.7,4.1,14.1,7c4.4,2.9,8.5,6.2,12.2,10
			c3.7,3.8,6.8,8,9.5,12.6c2.7,4.6,4.8,9.4,6.4,14.4s2.5,10.2,2.9,15.5s0.1,10.5-0.8,15.7c-0.9,5.2-2.3,10.3-4.4,15.1
			c-2.1,4.9-4.6,9.4-7.8,13.7c-3.1,4.3-6.7,8.1-10.7,11.6c-4,3.4-8.4,6.4-13.1,8.8c-4.7,2.4-9.6,4.3-14.8,5.5 M358.6,364.8
			c-5.2-1.2-10.1-2.9-14.9-5.3c-4.7-2.3-9.2-5.2-13.2-8.6"/>
		<path class="st2" d="M206.8,384.4c-11.6,9.6-19.7,21.5-24.5,35.7"/>
		<path class="st2" d="M303.4,382.2c12.4,10.4,21.8,23.3,27.9,38.8"/>
		<path class="st2" d="M416.4,368.3c11.5,12,20.3,27.5,26.6,46.3"/>
		<path class="st2" d="M182,356.4c-16,31-9.5,39.7,19.4,26.1"/>
		<line class="st2" x1="147.8" y1="321.4" x2="160.7" y2="334.4"/>
		<line class="st2" x1="133.1" y1="352.9" x2="154.3" y2="352.9"/>
		<line class="st2" x1="137.9" y1="386.3" x2="153" y2="379.7"/>
		<path class="st2" d="M256.5,300.4c-0.3-0.4-0.5-0.5-0.7-0.4"/>
		<line class="st2" x1="295.5" y1="300.8" x2="295.5" y2="300.8"/>
		<path class="st2" d="M256.3,332.2c12.5,9.9,25.6,9.8,39.3-0.4"/>
		<path class="st2" d="M374.8,284.9c-0.3-0.4-0.5-0.5-0.7-0.4"/>
		<line class="st2" x1="413.8" y1="285.4" x2="413.8" y2="285.4"/>
		<path class="st2" d="M374.5,316.7c12.5,9.9,25.6,9.8,39.3-0.4"/>
	</g>
</g>
</svg>
